<?xml version="1.0" encoding="utf-8"?>
<?xml-stylesheet type="text/xsl" href="rss1.xsl"?>
<rss version="2.0" xmlns:atom="http://www.w3.org/2005/Atom" xmlns:content="http://purl.org/rss/1.0/modules/content/" xmlns:dc="http://purl.org/dc/elements/1.1/" xmlns:media="http://search.yahoo.com/mrss/">
<channel>
 <title>Getty</title>
 <link>http://www.gettyimg.com/</link>
 <atom:link href="http://www.gettyimg.com/" rel="self" type="application/rss+xml" />

 
                <item>
                <title><![CDATA[【Albums (lossless)】FLAC - CRYPTA - 2023 - Shades of Sorrow [24Bit-48kHz]]]></title>
                <link><![CDATA[https://sharemania.us/threads/crypta-2023-shades-of-sorrow-24bit-48khz.229178/]]></link>
                <description><![CDATA[<article>
<blockquote class="messageText SelectQuoteContainer ugc baseHtml">
<div style="text-align: center"><img src="https://static.qobuz.com/images/covers/0b/4n/bkt1szxnn4n0b_600.jpg" class="bbCodeImage LbImage" alt="[​IMG]" data-url="https://static.qobuz.com/images/covers/0b/4n/bkt1szxnn4n0b_600.jpg" style=""> <br>
<br>
<b>Artist</b>: Crypta<br>
<b>Album</b>: Shades of Sorrow<br>
<b>Date</b>: 04 August 2023<br>
<b>Genre</b>: Death Metal<br>
<b>Quality</b>: FLAC Hi-Res [24bits/48.0kHz]<br>
<b>Country</b>: Brazil<br>
<b>Size</b>: 672,2MB<br>
<br>
<b>Tracklist</b>:<br>
<br>
1-The Aftermath 01:01<br>
2-Dark Clouds 04:46<br>
3-Poisonous Apathy 04:28<br>
4-The Outsider 05:29<br>
5-Stronghold 06:15<br>
6-The Other Side of Anger 04:23<br>
7-The Limbo 00:47<br>
8-Trial of Traitors 04:54<br>
9-Lullaby for the Forsaken 04:30<br>
10-Agents of Chaos 04:49<br>
11-Lift the Blindfold 04:29<br>
12-Lord of Ruins 05:14<br>
13-The Closure 00:40​</div>
<div class="messageTextEndMarker">&nbsp;</div>
</blockquote>
</article>]]></description>
                <author><![CDATA[XRB80]]></author>
                </item>

                
                <item>
                <title><![CDATA[【Music Videos】PACK - IVE - EITHER WAY [NAVER TV AND YOUTUBE PREMIUM 1080p+]]]></title>
                <link><![CDATA[https://sharemania.us/threads/ive-either-way-naver-tv-and-youtube-premium-1080p.229180/]]></link>
                <description><![CDATA[<article>
<blockquote class="messageText SelectQuoteContainer ugc baseHtml">
<div class="bbCodeBlock bbCodeVfcHH HiddenContent">
<div class="attribution type">Hidden Content:</div>
<blockquote>You must either reply or click 'Like' to see the hidden information contained here.</blockquote>
</div>
<div class="messageTextEndMarker">&nbsp;</div>
</blockquote>
</article>]]></description>
                <author><![CDATA[02020203]]></author>
                </item>

                
                <item>
                <title><![CDATA[【Requests】[REQ AUD] - Dee Dee Forever FLAC]]></title>
                <link><![CDATA[https://sharemania.us/threads/dee-dee-forever-flac.229177/]]></link>
                <description><![CDATA[<article>
<blockquote class="messageText SelectQuoteContainer ugc baseHtml">
Hi i'm looking for this CD <a href="https://www.discogs.com/release/173325-Dee-Dee-Forever" target="_blank" class="externalLink" rel="nofollow">https://www.discogs.com/release/173325-Dee-Dee-Forever</a> If there are any hands that have it I would be greatful. Thanks!
<div class="messageTextEndMarker">&nbsp;</div>
</blockquote>
</article>]]></description>
                <author><![CDATA[Tiger0970]]></author>
                </item>

                
                <item>
                <title><![CDATA[【MASTER &amp; MASTER RIP】MASTER - Martin Garrix ft Lloyiso - Real Love |Master 1080|]]></title>
                <link><![CDATA[https://sharemania.us/threads/martin-garrix-ft-lloyiso-real-love-master-1080.229176/]]></link>
                <description><![CDATA[<article>
<blockquote class="messageText SelectQuoteContainer ugc baseHtml">
<div style="text-align: center"><img src="https://i.imgur.com/Jy1m5Nm.gif" class="bbCodeImage LbImage" alt="[​IMG]" data-url="https://i.imgur.com/Jy1m5Nm.gif" style=""><br>
<br>
​</div>
<div class="ToggleTriggerAnchor bbCodeSpoilerContainer">
<button type="button" class="button bbCodeSpoilerButton ToggleTrigger Tooltip JsOnly" data-target="> .SpoilerTarget"><span>Spoiler: <span class="SpoilerTitle">MASTER</span></span></button>
<div class="SpoilerTarget bbCodeSpoilerText">
<div class="bbCodeBlock bbCodeCode">
<div class="type">Code:</div>
<pre>Format                                   : MPEG-4
Format profile                           : Base Media / Version 2
Codec ID                                 : mp42 (mp42/mp41)
File size                                : 485 MiB
Duration                                 : 3 min 9 s
Overall bit rate mode                    : Variable
Overall bit rate                         : 21.5 Mb/s
Encoded date                             : UTC 2023-09-21 21:28:22
Tagged date                              : UTC 2023-09-21 21:31:19
TIM                                      : 00:00:00:00
TSC                                      : 25
TSZ                                      : 1

Video
ID                                       : 1
Format                                   : AVC
Format/Info                              : Advanced Video Codec
Format profile                           : Main@L5
Format settings                          : CABAC / 2 Ref Frames
Format settings, CABAC                   : Yes
Format settings, Reference frames        : 2 frames
Codec ID                                 : avc1
Codec ID/Info                            : Advanced Video Coding
Duration                                 : 3 min 9 s
Bit rate mode                            : Variable
Bit rate                                 : 21.2 Mb/s
Maximum bit rate                         : 768 kb/s
Width                                    : 2 086 pixels
Height                                   : 1 270 pixels
Display aspect ratio                     : 16:10
Frame rate mode                          : Constant
Frame rate                               : 25.000 FPS
Color space                              : YUV
Chroma subsampling                       : 4:2:0
Bit depth                                : 8 bits
Scan type                                : Progressive
Bits/(Pixel*Frame)                       : 0.319
Stream size                              : 477 MiB (98%)
Language                                 : English
Encoded date                             : UTC 2023-09-21 21:28:22
Tagged date                              : UTC 2023-09-21 21:28:22
Color range                              : Limited
Color primaries                          : BT.709
Transfer characteristics                 : BT.709
Matrix coefficients                      : BT.709
Codec configuration box                  : avcC

Audio
ID                                       : 2
Format                                   : AAC LC
Format/Info                              : Advanced Audio Codec Low Complexity
Codec ID                                 : mp4a-40-2
Duration                                 : 3 min 9 s
Source duration                          : 3 min 9 s
Bit rate mode                            : Variable
Bit rate                                 : 317 kb/s
Maximum bit rate                         : 396 kb/s
Channel(s)                               : 2 channels
Channel layout                           : L R
Sampling rate                            : 48.0 kHz
Frame rate                               : 46.875 FPS (1024 SPF)
Compression mode                         : Lossy
Stream size                              : 7.16 MiB (1%)
Source stream size                       : 7.17 MiB (1%)
Language                                 : English
Encoded date                             : UTC 2023-09-21 21:28:23
Tagged date                              : UTC 2023-09-21 21:28:23</pre>
</div><div style="text-align: center">​</div></div>
</div><div style="text-align: center"><br>
<br>
<div class="bbCodeBlock bbCodeVfcHH HiddenContent">
<div class="attribution type">Hidden Content:</div>
<blockquote>You must reply before you can see the hidden data contained here.</blockquote>
</div></div>
<div class="messageTextEndMarker">&nbsp;</div>
</blockquote>
</article>]]></description>
                <author><![CDATA[fstambuk]]></author>
                </item>

                
                <item>
                <title><![CDATA[【PRORES HD】James Blunt - Beside You |ProRes 1080|]]></title>
                <link><![CDATA[https://sharemania.us/threads/james-blunt-beside-you-prores-1080.229175/]]></link>
                <description><![CDATA[<article>
<blockquote class="messageText SelectQuoteContainer ugc baseHtml">
<div style="text-align: center"><img src="https://i.imgur.com/2P3D3Ce.gif" class="bbCodeImage LbImage" alt="[​IMG]" data-url="https://i.imgur.com/2P3D3Ce.gif" style=""><br>
<br>
​</div>
<div class="ToggleTriggerAnchor bbCodeSpoilerContainer">
<button type="button" class="button bbCodeSpoilerButton ToggleTrigger Tooltip JsOnly" data-target="> .SpoilerTarget"><span>Spoiler: <span class="SpoilerTitle">ProRes</span></span></button>
<div class="SpoilerTarget bbCodeSpoilerText">
<div class="bbCodeBlock bbCodeCode">
<div class="type">Code:</div>
<pre>Format                                   : MPEG-4
Format profile                           : QuickTime
Codec ID                                 : qt   2005.03 (qt  )
File size                                : 2.73 GiB
Duration                                 : 3 min 4 s
Overall bit rate mode                    : Variable
Overall bit rate                         : 127 Mb/s
Encoded date                             : UTC 2023-08-07 14:13:58
Tagged date                              : UTC 2023-08-07 14:16:14
Writing library                          : Apple QuickTime
TIM                                      : 00:00:00:00
TSC                                      : 25
TSZ                                      : 1

Video
ID                                       : 1
Format                                   : ProRes
Format version                           : Version 0
Format profile                           : 422
Codec ID                                 : apcn
Duration                                 : 3 min 4 s
Bit rate mode                            : Variable
Bit rate                                 : 125 Mb/s
Width                                    : 1 920 pixels
Height                                   : 1 080 pixels
Display aspect ratio                     : 16:9
Frame rate mode                          : Constant
Frame rate                               : 25.000 FPS
Color space                              : YUV
Chroma subsampling                       : 4:2:2
Scan type                                : Progressive
Bits/(Pixel*Frame)                       : 2.420
Stream size                              : 2.69 GiB (99%)
Writing library                          : Apple
Language                                 : English
Encoded date                             : UTC 2023-08-07 14:13:58
Tagged date                              : UTC 2023-08-07 14:13:58
Color primaries                          : BT.709
Transfer characteristics                 : BT.709
Matrix coefficients                      : BT.709

Audio
ID                                       : 2
Format                                   : PCM
Format settings                          : Little / Signed
Codec ID                                 : sowt
Duration                                 : 3 min 4 s
Bit rate mode                            : Constant
Bit rate                                 : 1 536 kb/s
Channel(s)                               : 2 channels
Channel layout                           : L R
Sampling rate                            : 48.0 kHz
Bit depth                                : 16 bits
Stream size                              : 33.8 MiB (1%)
Language                                 : English
Encoded date                             : UTC 2023-08-07 14:13:58
Tagged date                              : UTC 2023-08-07 14:13:58

Other
ID                                       : 3
Type                                     : Time code
Format                                   : QuickTime TC
Duration                                 : 3 min 4 s
Frame rate                               : 25.000 FPS
Time code of first frame                 : 00:00:00:00
Time code, striped                       : Yes
Language                                 : English
Encoded date                             : UTC 2023-08-07 14:13:58
Tagged date                              : UTC 2023-08-07 14:13:58</pre>
</div><div style="text-align: center">​</div></div>
</div><div style="text-align: center"><br>
<br>
<div class="bbCodeBlock bbCodeVfcHH HiddenContent">
<div class="attribution type">Hidden Content:</div>
<blockquote>You must reply before you can see the hidden data contained here.</blockquote>
</div></div>
<div class="messageTextEndMarker">&nbsp;</div>
</blockquote>
</article>]]></description>
                <author><![CDATA[fstambuk]]></author>
                </item>

                
                <item>
                <title><![CDATA[【PRORES HD】Martin Garrix, Julian Jordan feat. Tinie Tempah - Diamonds |ProRes 1080|]]></title>
                <link><![CDATA[https://sharemania.us/threads/martin-garrix-julian-jordan-feat-tinie-tempah-diamonds-prores-1080.229179/]]></link>
                <description><![CDATA[<article>
<blockquote class="messageText SelectQuoteContainer ugc baseHtml">
<div style="text-align: center"><img src="https://i.imgur.com/EMGlTkj.gif" class="bbCodeImage LbImage" alt="[​IMG]" data-url="https://i.imgur.com/EMGlTkj.gif" style=""><br>
<br>
​</div>
<div class="ToggleTriggerAnchor bbCodeSpoilerContainer">
<button type="button" class="button bbCodeSpoilerButton ToggleTrigger Tooltip JsOnly" data-target="> .SpoilerTarget"><span>Spoiler: <span class="SpoilerTitle">ProRes</span></span></button>
<div class="SpoilerTarget bbCodeSpoilerText">
<div class="bbCodeBlock bbCodeCode">
<div class="type">Code:</div>
<pre>Format                                   : MPEG-4
Format profile                           : QuickTime
Codec ID                                 : qt   2005.03 (qt  )
File size                                : 2.77 GiB
Duration                                 : 3 min 25 s
Overall bit rate mode                    : Variable
Overall bit rate                         : 116 Mb/s
Encoded date                             : UTC 2021-11-02 14:13:46
Tagged date                              : UTC 2021-11-02 14:17:53
Writing library                          : Apple QuickTime
TIM                                      : 00:00:00:00
TSC                                      : 25
TSZ                                      : 1

Video
ID                                       : 1
Format                                   : ProRes
Format version                           : Version 0
Format profile                           : 422
Codec ID                                 : apcn
Duration                                 : 3 min 25 s
Bit rate mode                            : Variable
Bit rate                                 : 114 Mb/s
Width                                    : 1 920 pixels
Height                                   : 1 080 pixels
Display aspect ratio                     : 16:9
Frame rate mode                          : Constant
Frame rate                               : 25.000 FPS
Color space                              : YUV
Chroma subsampling                       : 4:2:2
Scan type                                : Progressive
Bits/(Pixel*Frame)                       : 2.202
Stream size                              : 2.73 GiB (99%)
Writing library                          : Apple
Language                                 : English
Encoded date                             : UTC 2021-11-02 14:13:46
Tagged date                              : UTC 2021-11-02 14:13:46
Color primaries                          : BT.709
Transfer characteristics                 : BT.709
Matrix coefficients                      : BT.709

Audio
ID                                       : 2
Format                                   : PCM
Format settings                          : Little / Signed
Codec ID                                 : sowt
Duration                                 : 3 min 25 s
Bit rate mode                            : Constant
Bit rate                                 : 1 536 kb/s
Channel(s)                               : 2 channels
Channel layout                           : L R
Sampling rate                            : 48.0 kHz
Bit depth                                : 16 bits
Stream size                              : 37.7 MiB (1%)
Language                                 : English
Encoded date                             : UTC 2021-11-02 14:13:46
Tagged date                              : UTC 2021-11-02 14:13:46

Other
ID                                       : 3
Type                                     : Time code
Format                                   : QuickTime TC
Duration                                 : 3 min 25 s
Frame rate                               : 25.000 FPS
Time code of first frame                 : 00:00:00:00
Time code, striped                       : Yes
Language                                 : English
Encoded date                             : UTC 2021-11-02 14:13:46
Tagged date                              : UTC 2021-11-02 14:13:46</pre>
</div><div style="text-align: center">​</div></div>
</div><div style="text-align: center"><br>
<br>
<div class="bbCodeBlock bbCodeVfcHH HiddenContent">
<div class="attribution type">Hidden Content:</div>
<blockquote>You must reply before you can see the hidden data contained here.</blockquote>
</div></div>
<div class="messageTextEndMarker">&nbsp;</div>
</blockquote>
</article>]]></description>
                <author><![CDATA[fstambuk]]></author>
                </item>

                </channel></rss>